<svg xmlns="http://www.w3.org/2000/svg" width="904" height="161" viewBox="0 0 904 161" version="1.1"><path d="M 54.500 1.120 C 31.855 3.924, 12.606 20.048, 3.786 43.600 C 1.662 49.273, 1.563 51.091, 1.227 90.938 C 1.035 113.729, 1.141 133.428, 1.464 134.713 C 2.401 138.447, 5.631 141, 9.418 141 C 17.586 141, 19 138.192, 19 121.973 C 19 109.903, 19.014 109.832, 21.923 106.923 C 25.049 103.797, 27.448 103.336, 31.343 105.110 C 35.507 107.008, 36 109.800, 36 131.500 C 36 144.630, 36.406 152.797, 37.139 154.405 C 38.856 158.175, 44.257 160.400, 48.383 159.039 C 53.956 157.199, 54.387 155.258, 54.446 131.699 C 54.505 108.623, 54.822 107.145, 60.203 104.916 C 64.118 103.294, 67.746 104.535, 70.027 108.277 C 71.674 110.978, 71.993 113.331, 71.996 122.800 C 72.001 137.796, 73.586 141, 81 141 C 88.414 141, 89.999 137.796, 90.004 122.800 C 90.007 113.331, 90.326 110.978, 91.973 108.277 C 94.316 104.434, 97.898 103.301, 102.142 105.059 C 106.788 106.983, 108 111.008, 108 124.516 C 108 135.753, 108.078 136.168, 110.646 138.548 C 114.322 141.954, 119.809 141.897, 123.076 138.418 L 125.500 135.836 125.499 93.168 L 125.498 50.500 122.727 43.012 C 113.897 19.153, 95.454 4.276, 70.678 1.026 C 66.375 0.462, 62.550 0.057, 62.178 0.126 C 61.805 0.196, 58.350 0.643, 54.500 1.120 M 213.903 31.979 C 195.860 35.164, 185.126 53.990, 192.420 69.656 C 195.894 77.118, 202.244 81.677, 217.922 87.969 C 231.855 93.560, 235 95.984, 235 101.135 C 235 104.747, 232.219 107.568, 227.315 108.929 C 218.636 111.339, 210.718 108.849, 203.220 101.350 C 200.203 98.333, 197.424 96.233, 197.043 96.683 C 196.663 97.132, 194.022 100.235, 191.176 103.578 C 188.329 106.920, 186 110.125, 186 110.700 C 186 112.253, 193.984 119.324, 199.063 122.270 C 211.004 129.194, 227.531 129.967, 239.341 124.153 C 246.769 120.496, 251.206 115.779, 253.472 109.128 C 255.333 103.667, 255.376 95.800, 253.573 90.748 C 250.298 81.571, 244.101 76.917, 225.718 69.828 C 213.042 64.940, 209.735 62.386, 210.187 57.839 C 211.143 48.239, 226.118 48.146, 238.617 57.662 C 241.616 59.944, 241.812 59.968, 243.753 58.268 C 244.863 57.295, 247.633 54.084, 249.909 51.131 C 254.734 44.869, 254.682 44.718, 245.687 38.887 C 236.156 32.709, 224.329 30.138, 213.903 31.979 M 31.182 34.030 C 26.397 36.948, 23.574 43.705, 24.972 48.897 C 26.252 53.650, 31.606 58.648, 36.376 59.543 C 41.129 60.434, 48.360 57.138, 50.429 53.137 C 52.592 48.955, 52.415 42.192, 50.040 38.299 C 46.258 32.095, 37.579 30.130, 31.182 34.030 M 81.407 33.515 C 76.895 35.824, 73.624 42.158, 74.308 47.261 C 75.320 54.808, 80.881 59.492, 88.688 59.374 C 98.446 59.227, 105.002 48.670, 100.595 40.200 C 96.857 33.017, 88.244 30.016, 81.407 33.515 M 297.501 33.139 C 297.214 33.887, 297.096 55.425, 297.239 81 L 297.500 127.500 306.633 127.786 L 315.765 128.072 316.468 125.286 C 316.855 123.754, 317.087 106.975, 316.983 88 C 316.879 69.025, 316.841 52.938, 316.897 52.250 C 317.058 50.299, 335.244 50.558, 339.128 52.566 C 344.407 55.296, 346.428 63.188, 343.455 69.454 C 341.539 73.491, 338.817 74.996, 331.904 75.842 L 326.518 76.500 325.667 81.851 C 324.658 88.193, 325.519 93.878, 327.611 94.681 C 330.167 95.662, 344.262 92.897, 349.040 90.478 C 355.070 87.425, 361.566 80.227, 363.153 74.841 C 363.856 72.453, 364.414 66.843, 364.394 62.374 C 364.362 55.594, 363.902 53.321, 361.617 48.650 C 358.285 41.840, 352.747 36.903, 345.746 34.502 C 338.698 32.085, 298.342 30.945, 297.501 33.139 M 407.250 32.655 C 406.382 33.010, 406 35.893, 406 42.098 L 406 51.029 436.750 50.764 L 467.500 50.500 467.500 41.500 L 467.500 32.500 438 32.321 C 421.775 32.223, 407.938 32.373, 407.250 32.655 M 513.143 33.328 C 512.287 34.359, 512.049 46.991, 512.240 81.115 L 512.500 127.500 522 127.500 L 531.500 127.500 531.800 114 L 532.100 100.500 560.532 67.126 C 576.170 48.770, 588.721 33.357, 588.423 32.876 C 588.126 32.394, 582.766 32, 576.513 32 L 565.143 32 548.822 51.657 L 532.500 71.313 532 51.907 L 531.500 32.500 522.903 32.213 C 516.474 31.999, 514.012 32.280, 513.143 33.328 M 618.679 32.654 C 618.306 33.028, 618 37.308, 618 42.167 L 618 51 631 51 L 644 51 644 89.500 L 644 128 653.500 128 L 663 128 663.011 93.250 C 663.017 74.137, 663.299 56.826, 663.637 54.779 L 664.252 51.058 676.876 50.779 L 689.500 50.500 689.500 41.500 L 689.500 32.500 654.429 32.237 C 635.140 32.093, 619.053 32.280, 618.679 32.654 M 729.667 32.667 C 729.300 33.033, 729 54.633, 729 80.667 L 729 128 738.393 128 C 746.036 128, 747.899 127.705, 748.393 126.418 C 748.727 125.548, 749 108.223, 749 87.918 L 749 51 758.550 51 C 768.784 51, 772.614 52.183, 775.439 56.217 C 777.404 59.022, 777.456 66.217, 775.538 69.926 C 773.869 73.154, 767.768 76, 762.515 76 C 757.728 76, 756.647 78.433, 757.224 87.907 L 757.686 95.500 768.978 111.750 L 780.270 128 791.635 128 C 797.886 128, 803 127.711, 803 127.357 C 803 127.003, 797.808 119.346, 791.462 110.340 C 785.116 101.334, 779.684 93.339, 779.390 92.573 C 779.061 91.718, 779.751 90.902, 781.178 90.457 C 785.341 89.159, 790.543 84.256, 793.479 78.862 C 795.726 74.732, 796.452 71.910, 796.797 65.953 C 797.387 55.754, 795.328 48.790, 789.898 42.621 C 784.827 36.861, 780.191 34.399, 771.871 33.049 C 764.861 31.911, 730.731 31.602, 729.667 32.667 M 841.634 34.236 C 840.845 37.182, 840.826 47.384, 841.607 49.418 C 842.142 50.813, 845.818 51, 872.645 51 L 903.075 51 902.788 41.750 L 902.500 32.500 872.370 32.236 L 842.241 31.971 841.634 34.236 M 406 79.986 L 406 89 437.039 89 L 468.078 89 467.789 80.250 L 467.500 71.500 436.750 71.236 L 406 70.971 406 79.986 M 841.466 73.281 C 841.151 74.535, 841.030 78.473, 841.197 82.031 L 841.500 88.500 872.250 88.764 L 903 89.029 903 80.014 L 903 71 872.519 71 L 842.038 71 841.466 73.281 M 550.552 106.750 C 553.869 111.868, 564.281 125.492, 565.836 126.750 C 567.631 128.201, 589 128.541, 589 127.119 C 589 126.635, 585.379 121.235, 580.954 115.119 L 572.907 104 560.839 104 L 548.770 104 550.552 106.750 M 407.670 109.823 C 406.259 110.097, 406 111.532, 406 119.088 L 406 128.029 436.750 127.764 L 467.500 127.500 467.789 118.750 C 468.048 110.912, 467.891 109.997, 466.289 109.970 C 449.017 109.682, 408.919 109.581, 407.670 109.823 M 841.667 110.667 C 840.833 111.500, 840.785 124.276, 841.607 126.418 C 842.142 127.813, 845.815 128, 872.607 128 L 903 128 903 119 L 903 110 872.667 110 C 855.983 110, 842.033 110.300, 841.667 110.667" stroke="none" fill="#fbfbfb" fill-rule="evenodd"/></svg>